<svg width="54" height="38" viewBox="0 0 54 38" fill="none" xmlns="http://www.w3.org/2000/svg">
<path d="M34.5093 37.6667C29.292 37.6667 24.8729 35.8563 21.252 32.2354C17.6311 28.6145 15.8207 24.1954 15.8207 18.978C15.8207 13.7994 17.6311 9.39738 21.252 5.77204C24.8729 2.14626 29.292 0.333374 34.5093 0.333374C39.6876 0.333374 44.0896 2.14626 47.7153 5.77204C51.3411 9.39738 53.154 13.7994 53.154 18.978C53.154 24.1954 51.3411 28.6145 47.7153 32.2354C44.0896 35.8563 39.6876 37.6667 34.5093 37.6667ZM34.4873 35C38.9318 35 42.7096 33.4445 45.8207 30.3334C48.9318 27.2223 50.4873 23.4445 50.4873 19C50.4873 14.5556 48.9318 10.7778 45.8207 7.66671C42.7096 4.5556 38.9318 3.00004 34.4873 3.00004C30.0429 3.00004 26.2651 4.5556 23.154 7.66671C20.0429 10.7778 18.4873 14.5556 18.4873 19C18.4873 23.4445 20.0429 27.2223 23.154 30.3334C26.2651 33.4445 30.0429 35 34.4873 35ZM41.0667 27.5487L42.9693 25.646L35.8207 18.4974V9.15404H33.154V19.5694L41.0667 27.5487ZM3.51268 9.66671V7.00004H13.154V9.66671H3.51268ZM0.846008 20.3334V17.6667H13.154V20.3334H0.846008ZM3.51268 31V28.3334H13.154V31H3.51268Z" fill="#141920"/>
</svg>
