<svg width="64" height="64" viewBox="0 0 64 64" fill="none" xmlns="http://www.w3.org/2000/svg">
<mask id="mask0_764_456" style="mask-type:alpha" maskUnits="userSpaceOnUse" x="0" y="0" width="64" height="64">
<path d="M0 4C0 1.79086 1.79086 0 4 0H64V60C64 62.2091 62.2091 64 60 64H4C1.79086 64 0 62.2091 0 60V4Z" fill="#D9D9D9"/>
</mask>
<g mask="url(#mask0_764_456)">
<path d="M25.3793 41.4874L32 37.472L38.6207 41.4874L36.8613 33.954L42.718 28.928L35.0207 28.246L32 21.1794L28.9793 28.246L21.282 28.928L27.1387 33.954L25.3793 41.4874ZM32 58.4414L24.1947 50.6667H13.3333V39.8054L5.55867 32L13.3333 24.1947V13.3334H24.1947L32 5.55872L39.8053 13.3334H50.6667V24.1947L58.4413 32L50.6667 39.8054V50.6667H39.8053L32 58.4414ZM32 54.6667L38.6667 48H48V38.6667L54.6667 32L48 25.3334V16H38.6667L32 9.33338L25.3333 16H16V25.3334L9.33334 32L16 38.6667V48H25.3333L32 54.6667Z" fill="#141920"/>
</g>
</svg>
