<svg width="18" height="18" viewBox="0 0 18 18" fill="none" xmlns="http://www.w3.org/2000/svg">
<path d="M4.577 15.5577L6.7115 11.9423H5.43275V9.18275L3.2885 12.798H4.577V15.5577ZM2 7.25H8V2.30775C8 2.23075 7.96792 2.16025 7.90375 2.09625C7.83975 2.03208 7.76925 2 7.69225 2H2.30775C2.23075 2 2.16025 2.03208 2.09625 2.09625C2.03208 2.16025 2 2.23075 2 2.30775V7.25ZM2 16H8V8.75H2V16ZM0.5 17.5V2.30775C0.5 1.80258 0.675 1.375 1.025 1.025C1.375 0.675 1.80258 0.5 2.30775 0.5H7.69225C8.19742 0.5 8.625 0.675 8.975 1.025C9.325 1.375 9.5 1.80258 9.5 2.30775V8.80775H10.6152C11.0729 8.80775 11.463 8.96892 11.7855 9.29125C12.108 9.61375 12.2693 10.0038 12.2693 10.4615V15.077C12.2693 15.3987 12.4003 15.6842 12.6625 15.9337C12.9247 16.1831 13.2198 16.3077 13.548 16.3077C13.8928 16.3077 14.1922 16.1831 14.446 15.9337C14.7 15.6842 14.827 15.3987 14.827 15.077V5.94225H14.5288C14.2711 5.94225 14.056 5.85608 13.8835 5.68375C13.7112 5.51125 13.625 5.29617 13.625 5.0385V3.25H14.077V1.94225H14.9615V3.25H15.8845V1.94225H16.7693V3.25H17.221V5.0385C17.221 5.29617 17.1348 5.51125 16.9625 5.68375C16.79 5.85608 16.5749 5.94225 16.3173 5.94225H16.0193V15.077C16.0193 15.732 15.7795 16.2996 15.3 16.7798C14.8205 17.2599 14.2365 17.5 13.548 17.5C12.8762 17.5 12.2963 17.2599 11.8085 16.7798C11.3208 16.2996 11.077 15.732 11.077 15.077V10.4615C11.077 10.3205 11.0353 10.2083 10.952 10.125C10.8687 10.0417 10.7564 10 10.6152 10H9.5V17.5H0.5Z" fill="#545A5F"/>
</svg>
