<svg width="266" height="57" viewBox="0 0 266 57" fill="none" xmlns="http://www.w3.org/2000/svg">
<path d="M52.827 28.2013C52.8182 28.6151 52.5101 28.9673 52.1051 29.0377C51.5768 29.1346 46.8928 30.1119 44.8237 34.699C42.5521 39.7352 45.7218 44.3928 45.757 44.4368C45.9859 44.7714 45.9595 45.2381 45.6778 45.5374C45.3872 45.8456 44.9382 45.9072 44.5772 45.6959C43.8464 45.2645 39.99 43.1778 35.5261 44.8507C32.242 46.0745 30.534 48.6102 29.6975 50.3623C29.2661 51.278 29.0724 51.9823 29.0284 52.1672C28.9315 52.5546 28.5794 52.8276 28.1744 52.8276C27.7693 52.8276 27.4172 52.5546 27.3203 52.1584C27.1794 51.6037 25.8324 46.682 20.8314 44.8507C16.3851 43.2218 12.5727 45.3261 11.8508 45.7663C11.4986 45.9864 11.0496 45.9248 10.759 45.6255C10.6204 45.4799 10.5361 45.2911 10.52 45.0908C10.504 44.8904 10.5573 44.6906 10.671 44.5249C10.7942 44.3312 13.8318 39.744 11.525 34.7078C9.43833 30.1471 4.76312 29.1434 4.23485 29.0377C4.03823 29.0009 3.86017 28.8978 3.73038 28.7456C3.6006 28.5934 3.52693 28.4013 3.52169 28.2013C3.51288 27.7787 3.79463 27.4177 4.19083 27.3208C4.41975 27.268 9.64963 25.9385 11.4986 20.8319C13.101 16.412 10.9791 12.6261 10.5389 11.9041C10.4333 11.7386 10.3872 11.5422 10.408 11.347C10.4288 11.1518 10.5153 10.9695 10.6534 10.83C10.9351 10.5394 11.3841 10.4778 11.7363 10.6891C12.4671 11.1205 16.3411 13.1896 20.8226 11.4991C25.8059 9.62375 27.1794 4.73724 27.3203 4.18256C27.4172 3.79516 27.7693 3.52222 28.1744 3.52222C28.5618 3.52222 28.9051 3.77755 29.0108 4.13853C29.0196 4.15614 29.0284 4.16495 29.0284 4.18256C29.1693 4.73724 30.5428 9.62375 35.5261 11.4991C40.0076 13.1896 43.8816 11.1205 44.6124 10.6891C44.7824 10.5873 44.9818 10.5458 45.1784 10.5713C45.3749 10.5969 45.557 10.688 45.6954 10.83C45.9771 11.1205 46.0299 11.5607 45.8098 11.9041C45.3696 12.6261 43.2477 16.412 44.8501 20.8319C46.6991 25.9385 51.929 27.268 52.1579 27.3208C52.3532 27.3691 52.5262 27.4827 52.6479 27.6429C52.7697 27.8031 52.8329 28.0002 52.827 28.2013Z" fill="#FBD613"/>
<path d="M29.6975 50.3623C29.2661 51.278 29.0724 51.9823 29.0284 52.1672C28.9315 52.5546 28.5794 52.8276 28.1744 52.8276C27.7693 52.8276 27.4172 52.5546 27.3203 52.1584C27.1794 51.6037 25.8324 46.682 20.8314 44.8507C16.3851 43.2218 12.5727 45.3261 11.8508 45.7663C11.4986 45.9864 11.0496 45.9248 10.759 45.6255C10.6204 45.4799 10.5361 45.2911 10.52 45.0908C10.504 44.8904 10.5573 44.6906 10.671 44.5249C10.7942 44.3312 13.8318 39.744 11.525 34.7078C9.43833 30.1471 4.76312 29.1434 4.23485 29.0377C4.03823 29.0009 3.86017 28.8978 3.73038 28.7456C3.6006 28.5934 3.52693 28.4013 3.52169 28.2013C3.51288 27.7787 3.79463 27.4177 4.19083 27.3208C4.41975 27.268 9.64963 25.9385 11.4986 20.8319C13.101 16.412 10.9791 12.6261 10.5389 11.9041C10.4333 11.7386 10.3872 11.5422 10.408 11.347C10.4288 11.1518 10.5153 10.9695 10.6534 10.83C10.9351 10.5394 11.3841 10.4778 11.7363 10.6891C12.4671 11.1205 16.3411 13.1896 20.8226 11.4991C25.8059 9.62375 27.1794 4.73724 27.3203 4.18256C27.4172 3.79516 27.7693 3.52222 28.1744 3.52222C28.5618 3.52222 28.9051 3.77755 29.0108 4.13853C25.3481 13.5946 18.0844 36.997 29.6975 50.3623Z" fill="#D8B500"/>
<path d="M42.2616 28.1744C42.2616 35.94 35.94 42.2616 28.1744 42.2616C27.0738 42.2616 26.0085 42.1384 24.9872 41.8918C18.7536 40.4479 14.0872 34.8394 14.0872 28.1744C14.0872 21.2452 19.1145 15.4695 25.7179 14.3073C26.5103 14.1576 27.338 14.0872 28.1744 14.0872C35.94 14.0872 42.2616 20.4088 42.2616 28.1744Z" fill="#E45416"/>
<path d="M24.9872 41.8919C18.7536 40.448 14.0872 34.8395 14.0872 28.1745C14.0872 21.2453 19.1145 15.4696 25.7179 14.3074C23.552 22.566 22.1169 33.0346 24.9872 41.8919Z" fill="#C54610"/>
<path d="M261.351 25.813V34.7796C261.351 35.4041 261.496 35.8614 261.786 36.1513C262.098 36.419 262.611 36.5528 263.325 36.5528H265.5V40.5008H262.556C258.608 40.5008 256.634 38.5825 256.634 34.7461V25.813H254.426V21.9655H256.634V17.3818H261.351V21.9655H265.5V25.813H261.351Z" fill="white"/>
<path d="M252.478 30.8316C252.478 31.5007 252.434 32.103 252.345 32.6383H238.794C238.906 33.9766 239.374 35.0249 240.2 35.7832C241.025 36.5416 242.04 36.9208 243.244 36.9208C244.984 36.9208 246.222 36.1736 246.958 34.6792H252.01C251.475 36.4635 250.449 37.9357 248.932 39.0955C247.415 40.233 245.553 40.8018 243.345 40.8018C241.56 40.8018 239.954 40.4115 238.527 39.6308C237.122 38.8278 236.018 37.7015 235.215 36.2516C234.434 34.8018 234.044 33.129 234.044 31.2331C234.044 29.3149 234.434 27.6308 235.215 26.181C235.995 24.7312 237.088 23.616 238.493 22.8353C239.899 22.0546 241.516 21.6643 243.345 21.6643C245.107 21.6643 246.679 22.0435 248.062 22.8019C249.467 23.5602 250.549 24.642 251.307 26.0472C252.088 27.4301 252.478 29.0249 252.478 30.8316ZM247.627 29.4933C247.605 28.2888 247.17 27.3297 246.322 26.616C245.475 25.8799 244.438 25.5119 243.211 25.5119C242.051 25.5119 241.07 25.8688 240.267 26.5825C239.486 27.274 239.006 28.2442 238.828 29.4933H247.627Z" fill="white"/>
<path d="M226.684 40.5005L220.394 32.6046V40.5005H215.71V15.7422H220.394V29.8277L226.617 21.9652H232.706L224.543 31.2663L232.773 40.5005H226.684Z" fill="white"/>
<path d="M206.867 24.8425C207.47 23.8611 208.25 23.0916 209.209 22.5339C210.191 21.9763 211.306 21.6975 212.555 21.6975V26.6157H211.317C209.845 26.6157 208.73 26.9614 207.971 27.6529C207.235 28.3443 206.867 29.5488 206.867 31.2663V40.5005H202.183V21.9652H206.867V24.8425Z" fill="white"/>
<path d="M178.304 31.1661C178.304 29.2925 178.672 27.6308 179.408 26.181C180.166 24.7312 181.181 23.616 182.452 22.8353C183.746 22.0546 185.185 21.6643 186.768 21.6643C188.151 21.6643 189.356 21.9431 190.382 22.5007C191.43 23.0584 192.266 23.761 192.891 24.6085V21.9654H197.608V40.5007H192.891V37.7907C192.289 38.6606 191.452 39.3855 190.382 39.9654C189.333 40.523 188.118 40.8018 186.735 40.8018C185.173 40.8018 183.746 40.4003 182.452 39.5974C181.181 38.7944 180.166 37.668 179.408 36.2182C178.672 34.7461 178.304 33.0621 178.304 31.1661ZM192.891 31.2331C192.891 30.0955 192.668 29.1253 192.222 28.3223C191.776 27.497 191.173 26.8725 190.415 26.4487C189.657 26.0026 188.843 25.7795 187.973 25.7795C187.103 25.7795 186.3 25.9914 185.564 26.4152C184.828 26.839 184.225 27.4636 183.757 28.2888C183.311 29.0918 183.088 30.0509 183.088 31.1661C183.088 32.2814 183.311 33.2628 183.757 34.1104C184.225 34.9357 184.828 35.5713 185.564 36.0174C186.322 36.4635 187.125 36.6866 187.973 36.6866C188.843 36.6866 189.657 36.4747 190.415 36.0509C191.173 35.6048 191.776 34.9803 192.222 34.1773C192.668 33.352 192.891 32.3706 192.891 31.2331Z" fill="white"/>
<path d="M174.877 17.1479V40.5011H170.193V25.3115L163.937 40.5011H160.39L154.1 25.3115V40.5011H149.416V17.1479H154.736L162.163 34.5122L169.591 17.1479H174.877Z" fill="white"/>
<path d="M140.574 24.8425C141.176 23.8611 141.956 23.0916 142.916 22.5339C143.897 21.9763 145.012 21.6975 146.261 21.6975V26.6157H145.023C143.551 26.6157 142.436 26.9614 141.678 27.6529C140.942 28.3443 140.574 29.5488 140.574 31.2663V40.5005H135.889V21.9652H140.574V24.8425Z" fill="white"/>
<path d="M112.01 31.1661C112.01 29.2925 112.378 27.6308 113.114 26.181C113.872 24.7312 114.887 23.616 116.158 22.8353C117.452 22.0546 118.891 21.6643 120.474 21.6643C121.857 21.6643 123.062 21.9431 124.088 22.5007C125.136 23.0584 125.972 23.761 126.597 24.6085V21.9654H131.314V40.5007H126.597V37.7907C125.995 38.6606 125.158 39.3855 124.088 39.9654C123.039 40.523 121.824 40.8018 120.441 40.8018C118.88 40.8018 117.452 40.4003 116.158 39.5974C114.887 38.7944 113.872 37.668 113.114 36.2182C112.378 34.7461 112.01 33.0621 112.01 31.1661ZM126.597 31.2331C126.597 30.0955 126.374 29.1253 125.928 28.3223C125.482 27.497 124.88 26.8725 124.121 26.4487C123.363 26.0026 122.549 25.7795 121.679 25.7795C120.809 25.7795 120.006 25.9914 119.27 26.4152C118.534 26.839 117.932 27.4636 117.463 28.2888C117.017 29.0918 116.794 30.0509 116.794 31.1661C116.794 32.2814 117.017 33.2628 117.463 34.1104C117.932 34.9357 118.534 35.5713 119.27 36.0174C120.028 36.4635 120.831 36.6866 121.679 36.6866C122.549 36.6866 123.363 36.4747 124.121 36.0509C124.88 35.6048 125.482 34.9803 125.928 34.1773C126.374 33.352 126.597 32.3706 126.597 31.2331Z" fill="white"/>
<path d="M108.587 15.7422V40.5005H103.903V15.7422H108.587Z" fill="white"/>
<path d="M90.7975 40.8018C89.0131 40.8018 87.4072 40.4115 85.9797 39.6308C84.5522 38.8278 83.4258 37.7015 82.6005 36.2516C81.7975 34.8018 81.3961 33.129 81.3961 31.2331C81.3961 29.3372 81.8087 27.6643 82.634 26.2145C83.4816 24.7647 84.6303 23.6494 86.0801 22.8688C87.5299 22.0658 89.147 21.6643 90.9314 21.6643C92.7157 21.6643 94.3328 22.0658 95.7826 22.8688C97.2325 23.6494 98.37 24.7647 99.1953 26.2145C100.043 27.6643 100.467 29.3372 100.467 31.2331C100.467 33.129 100.032 34.8018 99.1618 36.2516C98.3142 37.7015 97.1544 38.8278 95.6823 39.6308C94.2325 40.4115 92.6042 40.8018 90.7975 40.8018ZM90.7975 36.72C91.6451 36.72 92.4369 36.5193 93.173 36.1178C93.9314 35.694 94.5336 35.0695 94.9797 34.2442C95.4258 33.4189 95.6488 32.4152 95.6488 31.2331C95.6488 29.471 95.1804 28.1215 94.2436 27.1847C93.3291 26.2256 92.2027 25.7461 90.8644 25.7461C89.5262 25.7461 88.3998 26.2256 87.4853 27.1847C86.5931 28.1215 86.147 29.471 86.147 31.2331C86.147 32.9951 86.5819 34.3557 87.4518 35.3148C88.344 36.2516 89.4592 36.72 90.7975 36.72Z" fill="white"/>
<path d="M70.2423 40.7351C68.6141 40.7351 67.142 40.4563 65.826 39.8987C64.5323 39.3411 63.5063 38.5381 62.7479 37.4898C61.9895 36.4415 61.5992 35.2035 61.5769 33.776H66.5955C66.6624 34.7351 66.997 35.4935 67.5992 36.0511C68.2237 36.6087 69.0713 36.8875 70.1419 36.8875C71.2349 36.8875 72.0936 36.631 72.7182 36.118C73.3427 35.5827 73.655 34.8913 73.655 34.0437C73.655 33.3522 73.4431 32.7835 73.0193 32.3374C72.5955 31.8913 72.0602 31.5455 71.4133 31.3002C70.7888 31.0325 69.9189 30.7426 68.8037 30.4303C67.2869 29.9842 66.049 29.5493 65.0899 29.1255C64.1531 28.6794 63.339 28.0214 62.6475 27.1515C61.9784 26.2593 61.6438 25.0772 61.6438 23.605C61.6438 22.2221 61.9895 21.0177 62.681 19.9917C63.3724 18.9656 64.3427 18.185 65.5918 17.6497C66.8408 17.092 68.2683 16.8132 69.8743 16.8132C72.2832 16.8132 74.2349 17.4043 75.7293 18.5865C77.246 19.7463 78.0825 21.3746 78.2386 23.4712H73.0862C73.0416 22.6682 72.6958 22.0102 72.049 21.4972C71.4245 20.9619 70.588 20.6943 69.5397 20.6943C68.6252 20.6943 67.8892 20.9285 67.3315 21.3969C66.7962 21.8653 66.5286 22.5456 66.5286 23.4378C66.5286 24.0623 66.7293 24.5865 67.1308 25.0102C67.5546 25.4117 68.0676 25.7463 68.6698 26.014C69.2944 26.2593 70.1643 26.5493 71.2795 26.8838C72.7962 27.3299 74.0341 27.776 74.9932 28.2221C75.9523 28.6682 76.7776 29.3374 77.4691 30.2296C78.1605 31.1218 78.5062 32.2928 78.5062 33.7426C78.5062 34.9916 78.1828 36.1515 77.536 37.2221C76.8891 38.2928 75.9412 39.1515 74.6921 39.7983C73.4431 40.4229 71.9598 40.7351 70.2423 40.7351Z" fill="white"/>
</svg>
