<svg width="370" height="370" viewBox="0 0 370 370" fill="none" xmlns="http://www.w3.org/2000/svg">
<rect width="185" height="185" fill="white"/>
<mask id="mask0_764_157" style="mask-type:alpha" maskUnits="userSpaceOnUse" x="0" y="0" width="185" height="185">
<rect width="185" height="185" fill="white"/>
</mask>
<g mask="url(#mask0_764_157)">
<path d="M331.182 133.09H36.2459V208.971H331.182V133.09Z" fill="white"/>
<path opacity="0.31" d="M331.182 133.09H36.2459V146.598H331.182V133.09Z" fill="black"/>
<path d="M331.182 133.09H36.2459V208.971H331.182V133.09Z" stroke="#232323" stroke-width="0.708711" stroke-miterlimit="10" stroke-linecap="round" stroke-linejoin="round"/>
<path d="M334.205 133.09H33.2217V136.565H334.205V133.09Z" fill="white" stroke="#232323" stroke-width="0.708711" stroke-miterlimit="10" stroke-linecap="round" stroke-linejoin="round"/>
<path d="M335 133.142H30L55.4172 46H309.583L335 133.142Z" fill="#232323" stroke="#232323" stroke-width="0.708711" stroke-miterlimit="10" stroke-linecap="round" stroke-linejoin="round"/>
<path d="M91.273 119.376H45.4145L62.87 54.6321L103.116 54.8007L91.273 119.376Z" fill="#E45416" stroke="white" stroke-width="0.708711" stroke-miterlimit="10"/>
<path d="M72.7784 54.7603L56.7601 119.264" stroke="white" stroke-width="0.708711" stroke-miterlimit="10"/>
<path d="M83.1808 54.8037L68.6098 119.264" stroke="white" stroke-width="0.708711" stroke-miterlimit="10"/>
<path d="M93.5699 54.8467L80.441 119.264" stroke="white" stroke-width="0.708711" stroke-miterlimit="10"/>
<path d="M60.5141 63.6101L101.778 63.7589" stroke="white" stroke-width="0.708711" stroke-miterlimit="10"/>
<path d="M57.7431 73.894L99.9029 74.0174" stroke="white" stroke-width="0.708711" stroke-miterlimit="10"/>
<path d="M54.8494 84.6318L97.9454 84.7282" stroke="white" stroke-width="0.708711" stroke-miterlimit="10"/>
<path d="M51.8253 95.855L95.8993 95.9216" stroke="white" stroke-width="0.708711" stroke-miterlimit="10"/>
<path d="M48.6617 107.596L93.7598 107.63" stroke="white" stroke-width="0.708711" stroke-miterlimit="10"/>
<path d="M144.846 119.376H99.3047L110.169 54.8306L150.17 54.9978L144.846 119.376Z" fill="#E45416" stroke="white" stroke-width="0.708711" stroke-miterlimit="10"/>
<path d="M120.025 54.9573L110.561 119.264" stroke="white" stroke-width="0.708711" stroke-miterlimit="10"/>
<path d="M130.365 55.0005L122.329 119.264" stroke="white" stroke-width="0.708711" stroke-miterlimit="10"/>
<path d="M140.69 55.0439L134.078 119.264" stroke="white" stroke-width="0.708711" stroke-miterlimit="10"/>
<path d="M108.726 63.7837L149.734 63.9311" stroke="white" stroke-width="0.708711" stroke-miterlimit="10"/>
<path d="M107.002 74.0386L148.894 74.1612" stroke="white" stroke-width="0.708711" stroke-miterlimit="10"/>
<path d="M105.201 84.7451L148.018 84.8408" stroke="white" stroke-width="0.708711" stroke-miterlimit="10"/>
<path d="M103.32 95.9329L147.102 95.9995" stroke="white" stroke-width="0.708711" stroke-miterlimit="10"/>
<path d="M101.351 107.636L146.144 107.67" stroke="white" stroke-width="0.708711" stroke-miterlimit="10"/>
<path d="M166.7 146.587H160.998V156.463H166.7V146.587Z" fill="#CCCCCC"/>
<path d="M166.7 158.535H160.998V167.373H166.7V158.535Z" fill="#CCCCCC"/>
<path d="M166.7 169.446H160.998V178.285H166.7V169.446Z" fill="#CCCCCC"/>
<path d="M166.7 180.357H160.998V191.686H166.7V180.357Z" fill="#CCCCCC"/>
<path d="M159.542 180.357H152.677V191.686H159.542V180.357Z" fill="#CCCCCC"/>
<path d="M159.542 169.446H152.677V178.285H159.542V169.446Z" fill="#CCCCCC"/>
<path d="M159.542 158.535H152.677V167.373H159.542V158.535Z" fill="#CCCCCC"/>
<path d="M159.542 146.587H152.677V156.463H159.542V146.587Z" fill="#CCCCCC"/>
<path d="M198.27 146.11H168.68V202.79H198.27V146.11Z" fill="#E45416" stroke="#232323" stroke-width="0.708711" stroke-miterlimit="10" stroke-linecap="round" stroke-linejoin="round"/>
<path d="M194.452 149.45H172.976V177.131H194.452V149.45Z" stroke="#232323" stroke-width="0.354355" stroke-miterlimit="10" stroke-linecap="round" stroke-linejoin="round"/>
<path d="M194.452 180.471H172.976V184.767H194.452V180.471Z" stroke="#232323" stroke-width="0.354355" stroke-miterlimit="10" stroke-linecap="round" stroke-linejoin="round"/>
<path d="M172.119 173.713H169.431V182.787H172.119V173.713Z" fill="#232323"/>
<path d="M183.952 142.478C186.699 142.478 188.925 140.252 188.925 137.506C188.925 134.76 186.699 132.534 183.952 132.534C181.206 132.534 178.98 134.76 178.98 137.506C178.98 140.252 181.206 142.478 183.952 142.478Z" stroke="#232323" stroke-width="0.708711" stroke-miterlimit="10" stroke-linecap="round" stroke-linejoin="round"/>
<path d="M185.894 146.598H181.995L181.238 141.792H186.651L185.894 146.598Z" fill="white" stroke="#232323" stroke-width="1.41742" stroke-miterlimit="10" stroke-linecap="round" stroke-linejoin="round"/>
<path d="M185.513 137.975H182.376L180.744 141.782H187.145L185.513 137.975Z" fill="white" stroke="#232323" stroke-width="0.708711" stroke-miterlimit="10" stroke-linecap="round" stroke-linejoin="round"/>
<path d="M184.726 136.085H183.163V137.932H184.726V136.085Z" fill="#232323" stroke="#232323" stroke-width="0.708711" stroke-miterlimit="10" stroke-linecap="round" stroke-linejoin="round"/>
<path d="M156.862 138.896L164.479 136.499C175.955 132.886 188.274 132.77 199.819 136.164L209.113 138.896H224.273V120.636L182.103 70.7056L140.728 120.636V138.896H156.862Z" fill="white" stroke="#232323" stroke-width="0.708711" stroke-miterlimit="10" stroke-linecap="round" stroke-linejoin="round"/>
<path d="M182.5 64.2627L131.431 129.26H156.067V122.884H143.562L182.5 74.8664L221.438 122.884H209.004V129.26H233.569L182.5 64.2627Z" fill="white" stroke="#232323" stroke-width="0.708711" stroke-miterlimit="10" stroke-linecap="round" stroke-linejoin="round"/>
<path d="M156.028 129.26H131.431V135.133H156.028V129.26Z" fill="white" stroke="#232323" stroke-width="0.708711" stroke-miterlimit="10" stroke-linecap="round" stroke-linejoin="round"/>
<path d="M142.801 144.737H135.492V204.748H142.801V144.737Z" fill="white" stroke="#232323" stroke-width="0.708711" stroke-miterlimit="10" stroke-linecap="round" stroke-linejoin="round"/>
<path d="M143.215 142.55H135.076V144.815H143.215V142.55Z" fill="white" stroke="#232323" stroke-width="0.708711" stroke-miterlimit="10" stroke-linecap="round" stroke-linejoin="round"/>
<path d="M143.778 135.211H134.514V142.677H143.778V135.211Z" fill="white" stroke="#232323" stroke-width="0.708711" stroke-miterlimit="10" stroke-linecap="round" stroke-linejoin="round"/>
<path d="M153.69 144.737H146.381V204.748H153.69V144.737Z" fill="white" stroke="#232323" stroke-width="0.708711" stroke-miterlimit="10" stroke-linecap="round" stroke-linejoin="round"/>
<path d="M154.105 142.55H145.965V144.815H154.105V142.55Z" fill="white" stroke="#232323" stroke-width="0.708711" stroke-miterlimit="10" stroke-linecap="round" stroke-linejoin="round"/>
<path d="M154.667 135.211H145.403V142.677H154.667V135.211Z" fill="white" stroke="#232323" stroke-width="0.708711" stroke-miterlimit="10" stroke-linecap="round" stroke-linejoin="round"/>
<path d="M67.7881 169.446H60.7697V178.285H67.7881V169.446Z" fill="#CCCCCC"/>
<path d="M59.3126 146.587H53.611V156.463H59.3126V146.587Z" fill="#CCCCCC"/>
<path d="M59.3126 158.535H53.611V167.373H59.3126V158.535Z" fill="#CCCCCC"/>
<path d="M67.7881 158.535H60.7697V167.373H67.7881V158.535Z" fill="#CCCCCC"/>
<path d="M59.3126 169.446H53.611V178.285H59.3126V169.446Z" fill="#CCCCCC"/>
<path d="M67.7881 146.587H60.7697V156.463H67.7881V146.587Z" fill="#CCCCCC"/>
<path d="M59.3126 180.357H53.611V191.686H59.3126V180.357Z" fill="#CCCCCC"/>
<path d="M67.7881 180.357H60.7697V191.686H67.7881V180.357Z" fill="#CCCCCC"/>
<path d="M52.1546 180.357H45.29V191.686H52.1546V180.357Z" fill="#CCCCCC"/>
<path d="M52.1546 169.446H45.29V178.285H52.1546V169.446Z" fill="#CCCCCC"/>
<path d="M52.1546 158.535H45.29V167.373H52.1546V158.535Z" fill="#CCCCCC"/>
<path d="M52.1545 146.587H45.2899V156.463H52.1545V146.587Z" fill="#CCCCCC"/>
<path d="M94.7438 169.446H87.7254V178.285H94.7438V169.446Z" fill="#CCCCCC"/>
<path d="M86.2683 146.587H80.5667V156.463H86.2683V146.587Z" fill="#CCCCCC"/>
<path d="M86.2683 158.535H80.5667V167.373H86.2683V158.535Z" fill="#CCCCCC"/>
<path d="M94.7438 158.535H87.7254V167.373H94.7438V158.535Z" fill="#CCCCCC"/>
<path d="M86.2683 169.446H80.5667V178.285H86.2683V169.446Z" fill="#CCCCCC"/>
<path d="M94.7438 146.587H87.7254V156.463H94.7438V146.587Z" fill="#CCCCCC"/>
<path d="M86.2683 180.357H80.5667V191.686H86.2683V180.357Z" fill="#CCCCCC"/>
<path d="M94.7438 180.357H87.7254V191.686H94.7438V180.357Z" fill="#CCCCCC"/>
<path d="M79.1096 180.357H72.2451V191.686H79.1096V180.357Z" fill="#CCCCCC"/>
<path d="M79.1096 169.446H72.2451V178.285H79.1096V169.446Z" fill="#CCCCCC"/>
<path d="M79.1096 158.535H72.2451V167.373H79.1096V158.535Z" fill="#CCCCCC"/>
<path d="M79.1096 146.587H72.245V156.463H79.1096V146.587Z" fill="#CCCCCC"/>
<path d="M121.699 169.446H114.68V178.285H121.699V169.446Z" fill="#CCCCCC"/>
<path d="M113.223 146.587H107.522V156.463H113.223V146.587Z" fill="#CCCCCC"/>
<path d="M113.223 158.535H107.522V167.373H113.223V158.535Z" fill="#CCCCCC"/>
<path d="M121.699 158.535H114.68V167.373H121.699V158.535Z" fill="#CCCCCC"/>
<path d="M113.223 169.446H107.522V178.285H113.223V169.446Z" fill="#CCCCCC"/>
<path d="M121.699 146.587H114.68V156.463H121.699V146.587Z" fill="#CCCCCC"/>
<path d="M113.223 180.357H107.522V191.686H113.223V180.357Z" fill="#CCCCCC"/>
<path d="M121.699 180.357H114.68V191.686H121.699V180.357Z" fill="#CCCCCC"/>
<path d="M106.065 180.357H99.2007V191.686H106.065V180.357Z" fill="#CCCCCC"/>
<path d="M106.065 169.446H99.2007V178.285H106.065V169.446Z" fill="#CCCCCC"/>
<path d="M106.065 158.535H99.2007V167.373H106.065V158.535Z" fill="#CCCCCC"/>
<path d="M106.065 146.587H99.2007V156.463H106.065V146.587Z" fill="#CCCCCC"/>
<path d="M124.775 141.815H41.7342V195.266H124.775V141.815Z" stroke="#232323" stroke-width="0.708711" stroke-miterlimit="10" stroke-linecap="round" stroke-linejoin="round"/>
</g>
<path d="M185 78C185 34.9218 219.922 0 263 0H370V185H263C219.922 185 185 150.078 185 107V78Z" fill="white"/>
<mask id="mask1_764_157" style="mask-type:alpha" maskUnits="userSpaceOnUse" x="185" y="0" width="185" height="185">
<path d="M185 78C185 34.9218 219.922 0 263 0H370V185H263C219.922 185 185 150.078 185 107V78Z" fill="white"/>
</mask>
<g mask="url(#mask1_764_157)">
<path fill-rule="evenodd" clip-rule="evenodd" d="M226 112.432C226 114.955 228.045 117 230.568 117L239 117L239 66L230.568 66C228.045 66 226 68.045 226 70.5676L226 112.432ZM239.132 128.297C239.132 135.865 245.267 142 252.834 142L381.297 142C388.865 142 395 135.865 395 128.297L395 56.3581C395 48.7903 388.865 42.6554 381.297 42.6554L252.834 42.6554C245.267 42.6554 239.132 48.7903 239.132 56.3581L239.132 128.297Z" fill="#E9E9E9"/>
<rect x="244.27" y="136.291" width="87.3547" height="144.449" rx="6.85135" transform="rotate(-90 244.27 136.291)" fill="#CCCCCC"/>
<path d="M252.264 132.294C249.741 132.294 247.696 130.249 247.696 127.726L247.696 56.9291C247.696 54.4065 249.741 52.3615 252.264 52.3615L264.824 52.3615L264.824 132.294L252.264 132.294Z" fill="#E45416"/>
<path d="M380.155 52.3616C382.678 52.3616 384.723 54.4065 384.723 56.9291L384.723 127.726C384.723 130.249 382.678 132.294 380.155 132.294L367.595 132.294L367.595 52.3616L380.155 52.3616Z" fill="#E45416"/>
<rect x="364.74" y="52.3616" width="79.9324" height="17.1284" transform="rotate(90 364.74 52.3616)" fill="#E45416"/>
<rect x="344.757" y="52.3616" width="79.9324" height="17.1284" transform="rotate(90 344.757 52.3616)" fill="#E45416"/>
<rect x="324.774" y="52.3616" width="79.9324" height="17.1284" transform="rotate(90 324.774 52.3616)" fill="#E45416"/>
<rect x="304.79" y="52.3616" width="79.9324" height="17.1284" transform="rotate(90 304.79 52.3616)" fill="#E45416"/>
<rect x="284.807" y="52.3616" width="79.9324" height="17.1284" transform="rotate(90 284.807 52.3616)" fill="#E45416"/>
</g>
<path d="M0 185H106C149.63 185 185 220.37 185 264V370H0V185Z" fill="white"/>
<mask id="mask2_764_157" style="mask-type:alpha" maskUnits="userSpaceOnUse" x="0" y="185" width="185" height="185">
<path d="M0 185H106C149.63 185 185 220.37 185 264V370H0V185Z" fill="#F3F0EA"/>
</mask>
<g mask="url(#mask2_764_157)">
<path d="M75.8397 274.745C64.186 278.477 49.2573 280.27 45.0777 284.449C40.8981 288.629 35.8222 315.798 32.2392 325.949C28.6562 336.101 30.448 345.356 30.448 350.73C36.4198 348.64 71.5362 363.98 78.1046 401.002C83.6417 401.887 92.5015 402.188 95.1889 401.486C100.413 396.261 113.449 351.924 136.14 361.479C142.661 361.479 142.656 350.733 143.999 339.089C145.342 327.445 145.812 295.773 142.298 289.934C137.447 281.873 117.611 276.984 104.931 274.745C96.1315 277.284 87.4942 276.088 75.8397 274.745Z" fill="#232323"/>
<path d="M68.216 239.589C65.5289 230.408 66.2008 228.619 66.2008 226.38C72.6942 226.38 110.537 226.38 115.24 226.38C115.24 231.978 114.792 234.215 112.105 241.381C101.581 241.381 76.9489 239.589 68.216 239.589Z" fill="#3D3935"/>
<path d="M111.778 236.968C111.778 234.057 107.758 235.448 107.758 227.723C104.694 227.723 76.0757 227.723 73.0126 227.723C73.0126 235.448 69.5874 234.057 69.5874 236.968C67.6873 235.14 65.0898 236.296 65.0898 241.372C65.0898 246.448 67.2636 248.322 70.7547 246.829C72.0409 252.213 74.6943 259.051 79.629 263.298C79.6105 267.361 79.31 273.599 75.8399 274.745C77.3131 280.673 80.1589 288.136 90.3853 288.136C100.612 288.136 103.586 280.673 104.931 274.745C101.482 273.606 101.164 267.44 101.143 263.375C106.34 259.088 109.271 252.104 110.613 246.755C114.104 248.248 116.277 246.448 116.277 241.372C116.277 236.296 113.678 235.14 111.778 236.968Z" fill="#ECBB97"/>
<path d="M100.97 240.738C100.972 241.604 100.483 242.306 99.879 242.308C99.2757 242.308 98.7855 241.607 98.7849 240.741C98.7831 239.875 99.272 239.172 99.8754 239.171C100.479 239.17 100.969 239.872 100.97 240.738Z" fill="#3D3935"/>
<path d="M97.9585 238.102C98.7439 236.768 101.012 236.894 101.841 238.096C101.196 238.136 100.544 237.997 99.8996 238.05C99.2516 238.046 98.6052 238.09 97.9585 238.102Z" fill="#DC9D70"/>
<path d="M97.1649 235.64C96.8675 234.935 98.3279 234.124 99.9197 234.122C101.511 234.119 103.104 234.738 103.105 235.515C103.107 236.563 101.588 235.672 100.114 235.675C98.6405 235.676 97.4766 236.377 97.1649 235.64Z" fill="#3D3935"/>
<path d="M79.7752 240.738C79.7736 241.604 80.2622 242.306 80.8659 242.308C81.4692 242.308 81.9597 241.607 81.9606 240.741C81.9618 239.875 81.4735 239.172 80.8701 239.171C80.2665 239.17 79.7764 239.872 79.7752 240.738Z" fill="#3D3935"/>
<path d="M82.7874 238.102C82.1404 238.09 81.4939 238.046 80.8463 238.049C80.202 237.997 79.5495 238.136 78.9045 238.096C79.7331 236.894 82.0014 236.768 82.7874 238.102Z" fill="#DC9D70"/>
<path d="M83.5797 235.64C83.8769 234.935 82.4174 234.124 80.8253 234.122C79.2335 234.119 77.6408 234.738 77.6396 235.515C77.6383 236.563 79.1564 235.672 80.6301 235.675C82.1042 235.676 83.2684 236.377 83.5797 235.64Z" fill="#3D3935"/>
<path d="M70.0528 240.103C68.3472 238.461 66.9508 238.759 67.4164 242.118C67.8816 245.477 68.8743 245.364 70.1542 244.133C69.6109 242.266 70.0528 241.521 70.0528 240.103Z" fill="#DC9D70"/>
<path d="M111.313 240.103C113.019 238.461 114.415 238.759 113.95 242.118C113.485 245.477 112.502 245.284 111.222 244.052C111.764 242.186 111.313 241.521 111.313 240.103Z" fill="#DC9D70"/>
<path d="M90.8329 249.218C89.9415 249.512 88.8144 249.731 87.984 249.147C86.9959 248.451 86.944 247.103 87.483 246.101C87.6092 245.866 87.7801 245.683 87.9576 245.491C88.3746 245.042 88.7476 244.549 89.1157 244.06C89.7142 243.266 90.5591 242.357 90.8326 241.381C90.9133 242.157 90.5099 242.99 90.1776 243.668C89.7287 244.581 89.1737 245.427 88.5081 246.196C87.9066 246.891 87.7436 247.988 88.4538 248.66C89.1534 249.162 90.0134 249.149 90.8329 249.218Z" fill="#DC9D70"/>
<path d="M85.2351 254.256C86.6809 254.955 88.3131 255.38 89.9207 255.391C90.826 255.397 91.6678 255.228 92.5473 255.038C93.3091 254.886 94.0211 254.508 94.7516 254.256C93.4703 255.525 91.7558 256.331 89.9264 256.285C89.0812 256.263 88.2545 256.113 87.4676 255.793C87.0017 255.603 86.5474 255.366 86.1404 255.07C85.9701 254.946 85.2351 254.487 85.2351 254.256Z" fill="#DC9D70"/>
<path d="M79.6292 263.298C84.105 269.514 92.9125 272.686 101.143 263.375C96.3101 267.239 87.5004 269.85 79.6292 263.298Z" fill="#DC9D70"/>
<path d="M117.256 225.633H115.944C114.871 218.525 113.519 201.448 91.1316 201.448C68.7441 201.448 67.3921 218.525 66.3192 225.633H65.0069C64.3062 225.633 63.7381 226.201 63.7381 226.902C63.7381 227.603 64.3062 228.171 65.0069 228.171H117.256C117.957 228.171 118.525 227.603 118.525 226.902C118.525 226.201 117.957 225.633 117.256 225.633Z" fill="#FF682C"/>
<path d="M91.1313 214.361C90.8843 214.361 90.6834 214.161 90.6834 213.913V201.448C90.6834 201.2 90.884 201 91.1313 201C91.3787 201 91.5793 201.2 91.5793 201.448V213.913C91.579 214.161 91.3784 214.361 91.1313 214.361Z" fill="#E45416"/>
<path d="M115.944 226.081H66.3191C66.0717 226.081 65.8714 225.88 65.8714 225.633C65.8714 225.386 66.0714 225.185 66.3191 225.185H115.944C116.191 225.185 116.392 225.386 116.392 225.633C116.391 225.88 116.191 226.081 115.944 226.081Z" fill="#E45416"/>
<path d="M123.302 331.024C124.795 308.93 128.696 290.864 132.567 282.58C129.764 279.777 115.764 275.381 108.337 275.381C100.017 297.258 91.0778 318.139 88.3922 353.656C86.9892 290.51 75.7804 287.442 73.761 275.381C66.1495 275.381 54.5711 280.242 49.4357 281.918C60.0639 308.349 55.8263 337.293 50.4525 353.715C50.4525 366.553 48.064 384.466 46.2728 400.589C51.1987 405.515 119.719 408.452 130.766 402.282C127.482 388.946 121.809 353.117 123.302 331.024Z" fill="#F3F0EA"/>
<mask id="mask3_764_157" style="mask-type:luminance" maskUnits="userSpaceOnUse" x="46" y="275" width="87" height="131">
<path d="M123.302 331.024C124.795 308.93 128.696 290.864 132.567 282.58C129.764 279.777 115.764 275.381 108.337 275.381C100.017 297.258 91.0778 318.139 88.3922 353.656C86.9892 290.51 75.7804 287.442 73.761 275.381C66.1495 275.381 54.5711 280.242 49.4357 281.918C60.0639 308.349 55.8263 337.293 50.4525 353.715C50.4525 366.553 48.064 384.466 46.2728 400.589C51.1987 405.515 119.719 408.452 130.766 402.282C127.482 388.946 121.809 353.117 123.302 331.024Z" fill="white"/>
</mask>
<g mask="url(#mask3_764_157)">
<path d="M94.4599 322.72C66.9736 322.72 49.3381 318.902 48.3278 318.677L50.2689 309.934L49.2987 314.305L50.2662 309.933C50.5964 310.006 83.7905 317.154 129.597 311.65L130.666 320.543C117.371 322.141 105.167 322.72 94.4599 322.72Z" fill="#FF682C"/>
</g>
<path d="M81.6416 353.656C91.0245 360.392 114.725 368.166 125.142 369.103C124.592 364.539 124.115 359.861 123.756 355.244C117.621 353.235 103.664 349.053 88.9559 347.288C88.7462 349.358 88.5572 351.478 88.3927 353.656C88.3432 351.426 88.2798 349.281 88.2076 347.199C74.2525 345.605 59.7367 346.255 50.6645 353.047C50.5941 353.269 50.524 353.497 50.4529 353.715C50.4529 357.483 50.2459 361.689 49.91 366.158C60.8972 362.953 76.3663 355.446 81.6416 353.656Z" fill="#E8E0D1"/>
<path d="M89.4203 405.435C89.0494 405.435 88.7484 405.134 88.7484 404.763C88.7484 385.647 87.7311 353.995 87.7211 353.677C87.7092 353.307 87.9997 352.996 88.3705 352.985C88.7262 352.975 89.0519 353.263 89.0637 353.634C89.0737 353.952 90.0922 385.625 90.0922 404.763C90.0922 405.134 89.7912 405.435 89.4203 405.435Z" fill="#C7A73E"/>
<path d="M45.1463 332.207C38.0884 334.141 27.2383 349.088 31.9409 356.253C36.6432 363.419 58.0416 357.149 81.043 351.327C91.2803 356.029 116.284 362.45 136.14 361.479C137.961 355.358 137.131 346.4 132.567 344.161C136.289 344.161 135.692 342.967 135.169 342.445C136.587 342.146 137.693 341.221 136.23 339.758C137.558 339.758 138.976 338.19 136.513 336.847C134.05 335.503 129.497 333.936 126.138 332.293C127.63 331.845 136.929 334.493 137.86 333.562C138.791 332.631 133.228 329.158 124.869 328.263C116.509 327.367 114.195 330.875 106.134 331.621C98.0727 332.368 86.7271 332.965 79.4124 332.965C71.6497 330.278 67.4698 330.278 66.1265 328.935C64.7833 327.591 54.5888 319.381 52.4616 318.597C50.3345 317.813 40.2019 318.093 38.5224 318.877C36.8429 319.661 39.0262 320.276 40.0899 320.668C37.6268 320.668 33.764 321.116 35.2757 322.627C33.0924 322.907 33.2602 324.53 35.2757 325.09C33.9321 325.874 33.4775 326.819 36.3324 327.603C39.1879 328.387 43.9148 330.975 45.1463 332.207Z" fill="#ECBB97"/>
<path d="M79.4131 332.966C74.6598 333.605 69.8675 333.968 65.0881 334.339C59.5006 334.773 53.8936 335.084 48.2906 335.237C46.761 335.279 45.2278 335.321 43.697 335.317C48.4442 334.674 53.2435 334.267 58.0217 333.941C63.6165 333.559 69.2131 333.199 74.8195 333.046C76.3497 333.004 77.8823 332.962 79.4131 332.966Z" fill="#DC9D70"/>
<path d="M45.1465 332.207C45.9486 332.399 46.7279 332.819 47.4129 333.269C47.7968 333.528 48.1834 333.797 48.5331 334.1C48.6866 334.233 49.2985 334.688 49.2985 334.917C49.2985 334.941 48.4077 334.725 48.3568 334.709C47.843 334.544 47.3759 334.309 46.9234 334.019C46.2329 333.558 45.5204 332.969 45.1465 332.207Z" fill="#DC9D70"/>
<path d="M81.0435 351.327C88.2733 348.888 95.6074 346.708 102.933 344.581C103.568 344.397 104.203 344.213 104.836 344.027C105.065 343.961 105.232 344.125 105.43 344.244C106.357 344.799 107.341 345.274 108.409 345.478C110.734 345.921 112.739 344.936 114.924 344.371C119.486 343.182 124.368 342.94 129.041 343.504C130.236 343.648 131.394 343.905 132.568 344.162C130.811 343.924 129.071 343.728 127.299 343.687C124.396 343.567 121.407 343.882 118.552 344.391C117.129 344.634 115.68 344.925 114.315 345.403C113.52 345.679 112.736 345.987 111.919 346.192C109.464 346.805 107.145 346.32 105.008 345.024C104.902 344.959 104.795 344.895 104.689 344.831C104.811 344.849 104.933 344.866 105.053 344.885C97.7057 346.964 90.3473 348.998 82.9415 350.86C82.3094 351.019 81.6769 351.176 81.0435 351.327C83.0599 350.845 83.008 350.664 81.0435 351.327Z" fill="#DC9D70"/>
<path d="M40.0904 320.668C41.5314 320.286 43.0943 320.264 44.5744 320.317C45.5107 320.359 46.4339 320.448 47.3559 320.625C47.4764 320.649 49.0151 320.916 49.0151 321.042C49.0151 321.118 47.5529 321.2 47.46 321.205C46.5459 321.255 45.6203 321.245 44.7056 321.217C43.1751 321.171 41.5769 321.059 40.0904 320.668Z" fill="#DC9D70"/>
<path d="M35.276 322.627C37.3021 322.308 39.3901 322.407 41.4284 322.521C42.652 322.62 43.8621 322.748 45.0715 322.963C45.2557 322.996 47.5039 323.351 47.5039 323.505C47.5039 323.719 42.1565 323.458 41.693 323.431C39.5589 323.313 37.3616 323.109 35.276 322.627Z" fill="#DC9D70"/>
<path d="M35.276 325.091C37.0654 324.756 38.9203 324.934 40.7058 325.197C41.7106 325.345 42.6888 325.611 43.6563 325.917C44.1185 326.063 44.578 326.221 45.0293 326.399C45.0724 326.416 45.6007 326.591 45.6007 326.64C45.6007 326.78 41.0991 326.148 40.7276 326.1C38.9094 325.862 37.0542 325.543 35.276 325.091Z" fill="#DC9D70"/>
<path d="M125.093 335.317C126.989 335.506 128.845 336.095 130.631 336.732C132.626 337.442 134.589 338.406 136.231 339.758C134.235 339.13 132.269 338.317 130.318 337.56C129.275 337.156 128.234 336.744 127.206 336.303C126.704 336.087 126.204 335.862 125.711 335.625C125.661 335.6 125.093 335.375 125.093 335.317Z" fill="#DC9D70"/>
<path d="M125.093 339.089C126.76 339.112 128.446 339.506 130.037 339.977C131.86 340.516 133.664 341.267 135.17 342.445C133.405 342.024 131.664 341.415 129.931 340.879C128.973 340.582 128.024 340.253 127.082 339.907C126.607 339.733 126.136 339.547 125.671 339.348C125.627 339.329 125.093 339.138 125.093 339.089Z" fill="#DC9D70"/>
</g>
<rect x="185" y="185" width="185" height="185" fill="#E45416"/>
<path d="M328.157 277.272C328.139 278.127 327.502 278.854 326.665 279C325.573 279.2 315.895 281.219 311.62 290.698C306.926 301.104 313.475 310.728 313.548 310.819C314.021 311.51 313.966 312.475 313.384 313.093C312.784 313.73 311.856 313.857 311.11 313.421C309.6 312.529 301.632 308.218 292.408 311.674C285.622 314.203 282.093 319.443 280.364 323.063C279.473 324.955 279.073 326.41 278.982 326.792C278.782 327.593 278.054 328.157 277.217 328.157C276.38 328.157 275.652 327.593 275.452 326.774C275.161 325.628 272.378 315.458 262.044 311.674C252.857 308.309 244.979 312.657 243.487 313.566C242.76 314.021 241.832 313.894 241.232 313.275C240.945 312.974 240.771 312.584 240.738 312.17C240.705 311.756 240.815 311.344 241.05 311.001C241.304 310.601 247.581 301.122 242.814 290.716C238.503 281.292 228.842 279.218 227.751 279C227.344 278.924 226.976 278.711 226.708 278.396C226.44 278.082 226.288 277.685 226.277 277.272C226.259 276.398 226.841 275.652 227.66 275.452C228.133 275.343 238.939 272.596 242.76 262.044C246.071 252.911 241.686 245.088 240.777 243.597C240.559 243.255 240.463 242.849 240.506 242.445C240.549 242.042 240.728 241.665 241.013 241.377C241.595 240.777 242.523 240.649 243.251 241.086C244.761 241.977 252.766 246.253 262.026 242.76C272.323 238.885 275.161 228.788 275.452 227.642C275.652 226.841 276.38 226.277 277.217 226.277C278.017 226.277 278.727 226.805 278.945 227.551C278.963 227.587 278.982 227.605 278.982 227.642C279.273 228.788 282.111 238.885 292.408 242.76C301.668 246.253 309.673 241.977 311.183 241.086C311.534 240.876 311.946 240.79 312.352 240.843C312.758 240.896 313.135 241.084 313.421 241.377C314.003 241.977 314.112 242.887 313.657 243.597C312.748 245.088 308.363 252.911 311.674 262.044C315.495 272.596 326.301 275.343 326.774 275.452C327.178 275.552 327.535 275.787 327.787 276.118C328.038 276.449 328.169 276.856 328.157 277.272Z" fill="#F3F0EA"/>
<path d="M280.364 323.063C279.473 324.955 279.073 326.41 278.982 326.792C278.782 327.593 278.054 328.157 277.217 328.157C276.38 328.157 275.652 327.593 275.452 326.774C275.161 325.628 272.378 315.458 262.044 311.674C252.857 308.309 244.979 312.657 243.487 313.566C242.76 314.021 241.832 313.894 241.232 313.275C240.945 312.974 240.771 312.584 240.738 312.17C240.705 311.756 240.815 311.344 241.05 311.001C241.304 310.601 247.581 301.122 242.814 290.716C238.503 281.292 228.842 279.218 227.751 279C227.344 278.924 226.976 278.711 226.708 278.396C226.44 278.082 226.288 277.685 226.277 277.272C226.259 276.398 226.841 275.652 227.66 275.452C228.133 275.343 238.939 272.596 242.76 262.044C246.071 252.911 241.686 245.088 240.777 243.597C240.559 243.255 240.463 242.849 240.506 242.445C240.549 242.042 240.728 241.665 241.013 241.377C241.595 240.777 242.523 240.649 243.251 241.086C244.761 241.977 252.766 246.253 262.026 242.76C272.323 238.885 275.161 228.788 275.452 227.642C275.652 226.841 276.38 226.277 277.217 226.277C278.017 226.277 278.727 226.805 278.945 227.551C271.377 247.09 256.368 295.446 280.364 323.063Z" fill="#F3F0EA"/>
<path d="M306.325 277.217C306.325 293.263 293.263 306.326 277.217 306.326C274.943 306.326 272.741 306.071 270.631 305.562C257.75 302.578 248.108 290.989 248.108 277.217C248.108 262.899 258.496 250.965 272.141 248.563C273.778 248.254 275.488 248.109 277.217 248.109C293.263 248.109 306.325 261.171 306.325 277.217Z" fill="#E45416"/>
<path d="M270.631 305.561C257.75 302.578 248.108 290.989 248.108 277.217C248.108 262.899 258.496 250.965 272.141 248.563C267.666 265.628 264.7 287.259 270.631 305.561Z" fill="#E45416"/>
</svg>
