<svg width="177" height="38" viewBox="0 0 177 38" fill="none" xmlns="http://www.w3.org/2000/svg">
<path d="M35.2181 18.8006C35.2122 19.0765 35.0068 19.3113 34.7368 19.3582C34.3846 19.4228 31.2619 20.0743 29.8825 23.1324C28.3682 26.4899 30.4812 29.595 30.5047 29.6243C30.6573 29.8474 30.6397 30.1585 30.4519 30.358C30.2582 30.5635 29.9588 30.6046 29.7182 30.4637C29.231 30.1761 26.6601 28.785 23.6841 29.9002C21.4948 30.7161 20.356 32.4065 19.7984 33.5746C19.5108 34.1851 19.3817 34.6546 19.3523 34.7779C19.2878 35.0362 19.053 35.2181 18.783 35.2181C18.513 35.2181 18.2782 35.0362 18.2136 34.772C18.1197 34.4022 17.2216 31.1211 13.8876 29.9002C10.9235 28.8143 8.38189 30.2172 7.90057 30.5106C7.66578 30.6574 7.36643 30.6163 7.17273 30.4167C7.08035 30.3197 7.02411 30.1938 7.01342 30.0603C7.00273 29.9267 7.03825 29.7935 7.11403 29.683C7.19621 29.5539 9.22125 26.4958 7.68339 23.1383C6.29228 20.0978 3.17548 19.4287 2.8233 19.3582C2.69221 19.3337 2.57351 19.265 2.48698 19.1635C2.40046 19.062 2.35135 18.9339 2.34785 18.8006C2.34198 18.5189 2.52981 18.2782 2.79395 18.2137C2.94656 18.1784 6.43315 17.2921 7.66578 13.8877C8.73407 10.9411 7.31947 8.41715 7.02599 7.93584C6.95562 7.82551 6.92484 7.69454 6.93871 7.56442C6.95257 7.4343 7.01026 7.31276 7.10229 7.21974C7.29012 7.02604 7.58948 6.98495 7.82427 7.12582C8.31145 7.41344 10.8941 8.79281 13.8818 7.66583C17.204 6.41559 18.1197 3.15792 18.2136 2.78813C18.2782 2.52986 18.513 2.3479 18.783 2.3479C19.0412 2.3479 19.2701 2.51812 19.3406 2.75878C19.3465 2.77052 19.3523 2.77639 19.3523 2.78813C19.4462 3.15792 20.3619 6.41559 23.6841 7.66583C26.6718 8.79281 29.2545 7.41344 29.7417 7.12582C29.855 7.05794 29.9879 7.03028 30.119 7.04732C30.25 7.06436 30.3714 7.12511 30.4636 7.21974C30.6515 7.41344 30.6867 7.70692 30.5399 7.93584C30.2465 8.41715 28.8319 10.9411 29.9001 13.8877C31.1328 17.2921 34.6194 18.1784 34.772 18.2137C34.9022 18.2458 35.0175 18.3216 35.0987 18.4284C35.1798 18.5352 35.222 18.6665 35.2181 18.8006Z" fill="#FBD613"/>
<path d="M19.7984 33.5746C19.5108 34.1851 19.3817 34.6546 19.3523 34.7779C19.2878 35.0362 19.053 35.2181 18.783 35.2181C18.513 35.2181 18.2782 35.0362 18.2136 34.772C18.1197 34.4022 17.2216 31.1211 13.8876 29.9002C10.9235 28.8143 8.38189 30.2172 7.90057 30.5106C7.66578 30.6574 7.36643 30.6163 7.17273 30.4167C7.08035 30.3197 7.02411 30.1938 7.01342 30.0603C7.00274 29.9267 7.03826 29.7935 7.11403 29.683C7.19621 29.5539 9.22125 26.4958 7.68339 23.1383C6.29228 20.0978 3.17548 19.4287 2.8233 19.3582C2.69221 19.3337 2.57351 19.265 2.48698 19.1635C2.40046 19.062 2.35135 18.9339 2.34785 18.8006C2.34198 18.5189 2.52981 18.2782 2.79395 18.2137C2.94656 18.1784 6.43315 17.2921 7.66578 13.8877C8.73407 10.9411 7.31947 8.41715 7.02599 7.93584C6.95562 7.82551 6.92484 7.69454 6.93871 7.56442C6.95257 7.4343 7.01026 7.31276 7.10229 7.21974C7.29012 7.02604 7.58948 6.98495 7.82427 7.12582C8.31145 7.41344 10.8941 8.79281 13.8818 7.66583C17.204 6.41559 18.1197 3.15792 18.2136 2.78813C18.2782 2.52986 18.513 2.3479 18.783 2.3479C19.0412 2.3479 19.2701 2.51812 19.3406 2.75878C16.8988 9.06282 12.0563 24.6644 19.7984 33.5746Z" fill="#D8B500"/>
<path d="M28.1744 18.7831C28.1744 23.9602 23.96 28.1746 18.7829 28.1746C18.0492 28.1746 17.339 28.0924 16.6581 27.9281C12.5024 26.9654 9.39142 23.2264 9.39142 18.7831C9.39142 14.1637 12.743 10.3131 17.1453 9.53834C17.6735 9.43856 18.2253 9.3916 18.7829 9.3916C23.96 9.3916 28.1744 13.606 28.1744 18.7831Z" fill="#E45416"/>
<path d="M16.6581 27.928C12.5024 26.9654 9.39142 23.2264 9.39142 18.7831C9.39142 14.1636 12.743 10.3131 17.1453 9.53833C15.7013 15.0441 14.7446 22.0231 16.6581 27.928Z" fill="#C54610"/>
<path d="M174.234 17.2089V23.1866C174.234 23.603 174.331 23.9078 174.524 24.1011C174.732 24.2796 175.074 24.3688 175.55 24.3688H177V27.0007H175.037C172.405 27.0007 171.089 25.7219 171.089 23.1643V17.2089H169.617V14.6439H171.089V11.5881H174.234V14.6439H177V17.2089H174.234Z" fill="#141920"/>
<path d="M168.319 20.5546C168.319 21.0007 168.289 21.4022 168.23 21.7591H159.196C159.271 22.6513 159.583 23.3502 160.133 23.8557C160.683 24.3613 161.36 24.6141 162.163 24.6141C163.323 24.6141 164.148 24.116 164.639 23.1197H168.007C167.65 24.3093 166.966 25.2907 165.955 26.0639C164.944 26.8223 163.702 27.2015 162.23 27.2015C161.04 27.2015 159.97 26.9412 159.018 26.4208C158.081 25.8855 157.345 25.1345 156.81 24.168C156.289 23.2015 156.029 22.0862 156.029 20.8223C156.029 19.5435 156.289 18.4208 156.81 17.4543C157.33 16.4877 158.059 15.7442 158.996 15.2238C159.932 14.7033 161.011 14.4431 162.23 14.4431C163.405 14.4431 164.453 14.6959 165.375 15.2015C166.312 15.7071 167.033 16.4282 167.538 17.365C168.059 18.287 168.319 19.3502 168.319 20.5546ZM165.085 19.6624C165.07 18.8595 164.78 18.2201 164.215 17.7442C163.65 17.2535 162.958 17.0082 162.141 17.0082C161.367 17.0082 160.713 17.2461 160.178 17.7219C159.657 18.1829 159.338 18.8297 159.219 19.6624H165.085Z" fill="#141920"/>
<path d="M151.123 27.0007L146.929 21.7367V27.0007H143.807V10.4951H146.929V19.8854L151.078 14.6438H155.138L149.695 20.8445L155.182 27.0007H151.123Z" fill="#141920"/>
<path d="M137.912 16.562C138.313 15.9077 138.833 15.3947 139.473 15.023C140.127 14.6512 140.871 14.4653 141.703 14.4653V17.7441H140.878C139.897 17.7441 139.153 17.9746 138.648 18.4356C138.157 18.8966 137.912 19.6995 137.912 20.8445V27.0006H134.789V14.6438H137.912V16.562Z" fill="#141920"/>
<path d="M118.869 20.7777C118.869 19.5286 119.114 18.4208 119.605 17.4543C120.111 16.4877 120.787 15.7442 121.635 15.2238C122.497 14.7033 123.456 14.4431 124.512 14.4431C125.434 14.4431 126.237 14.629 126.921 15.0007C127.62 15.3725 128.178 15.8409 128.594 16.4059V14.6439H131.739V27.0007H128.594V25.194C128.192 25.774 127.635 26.2572 126.921 26.6438C126.222 27.0156 125.412 27.2015 124.49 27.2015C123.449 27.2015 122.497 26.9338 121.635 26.3985C120.787 25.8632 120.111 25.1122 119.605 24.1457C119.114 23.1643 118.869 22.0416 118.869 20.7777ZM128.594 20.8223C128.594 20.0639 128.445 19.4171 128.148 18.8818C127.85 18.3316 127.449 17.9152 126.943 17.6327C126.438 17.3353 125.895 17.1866 125.315 17.1866C124.735 17.1866 124.2 17.3279 123.709 17.6104C123.218 17.8929 122.817 18.3093 122.505 18.8595C122.207 19.3948 122.059 20.0342 122.059 20.7777C122.059 21.5212 122.207 22.1754 122.505 22.7405C122.817 23.2907 123.218 23.7145 123.709 24.0119C124.215 24.3093 124.75 24.458 125.315 24.458C125.895 24.458 126.438 24.3167 126.943 24.0342C127.449 23.7368 127.85 23.3204 128.148 22.7851C128.445 22.2349 128.594 21.5806 128.594 20.8223Z" fill="#141920"/>
<path d="M116.585 11.4319V27.0006H113.462V16.8743L109.291 27.0006H106.927L102.734 16.8743V27.0006H99.6108V11.4319H103.157L108.109 23.0081L113.061 11.4319H116.585Z" fill="#141920"/>
<path d="M93.7157 16.562C94.1172 15.9077 94.6376 15.3947 95.277 15.023C95.9313 14.6512 96.6748 14.4653 97.5075 14.4653V17.7441H96.6822C95.7008 17.7441 94.9573 17.9746 94.4517 18.4356C93.961 18.8966 93.7157 19.6995 93.7157 20.8445V27.0006H90.593V14.6438H93.7157V16.562Z" fill="#141920"/>
<path d="M74.6732 20.7777C74.6732 19.5286 74.9185 18.4208 75.4092 17.4543C75.9148 16.4877 76.5914 15.7442 77.439 15.2238C78.3014 14.7033 79.2605 14.4431 80.3163 14.4431C81.2382 14.4431 82.0412 14.629 82.7252 15.0007C83.4241 15.3725 83.9817 15.8409 84.3981 16.4059V14.6439H87.5431V27.0007H84.3981V25.194C83.9966 25.774 83.439 26.2572 82.7252 26.6438C82.0263 27.0156 81.2159 27.2015 80.294 27.2015C79.2531 27.2015 78.3014 26.9338 77.439 26.3985C76.5914 25.8632 75.9148 25.1122 75.4092 24.1457C74.9185 23.1643 74.6732 22.0416 74.6732 20.7777ZM84.3981 20.8223C84.3981 20.0639 84.2494 19.4171 83.952 18.8818C83.6546 18.3316 83.2531 17.9152 82.7475 17.6327C82.2419 17.3353 81.6992 17.1866 81.1193 17.1866C80.5393 17.1866 80.004 17.3279 79.5133 17.6104C79.0226 17.8929 78.6211 18.3093 78.3089 18.8595C78.0115 19.3948 77.8628 20.0342 77.8628 20.7777C77.8628 21.5212 78.0115 22.1754 78.3089 22.7405C78.6211 23.2907 79.0226 23.7145 79.5133 24.0119C80.0189 24.3093 80.5542 24.458 81.1193 24.458C81.6992 24.458 82.2419 24.3167 82.7475 24.0342C83.2531 23.7368 83.6546 23.3204 83.952 22.7851C84.2494 22.2349 84.3981 21.5806 84.3981 20.8223Z" fill="#141920"/>
<path d="M72.3912 10.4951V27.0007H69.2686V10.4951H72.3912Z" fill="#141920"/>
<path d="M60.5317 27.2015C59.3422 27.2015 58.2715 26.9412 57.3199 26.4208C56.3682 25.8855 55.6173 25.1345 55.0671 24.168C54.5318 23.2015 54.2641 22.0862 54.2641 20.8223C54.2641 19.5583 54.5392 18.4431 55.0894 17.4766C55.6544 16.51 56.4202 15.7665 57.3868 15.2461C58.3533 14.7108 59.4314 14.4431 60.621 14.4431C61.8106 14.4431 62.8886 14.7108 63.8552 15.2461C64.8217 15.7665 65.5801 16.51 66.1303 17.4766C66.6953 18.4431 66.9778 19.5583 66.9778 20.8223C66.9778 22.0862 66.6879 23.2015 66.1079 24.168C65.5429 25.1345 64.7697 25.8855 63.7882 26.4208C62.8217 26.9412 61.7362 27.2015 60.5317 27.2015ZM60.5317 24.4803C61.0968 24.4803 61.6247 24.3464 62.1154 24.0788C62.621 23.7963 63.0224 23.3799 63.3198 22.8297C63.6172 22.2795 63.7659 21.6104 63.7659 20.8223C63.7659 19.6476 63.4537 18.7479 62.8291 18.1234C62.2195 17.484 61.4685 17.1643 60.5764 17.1643C59.6842 17.1643 58.9332 17.484 58.3236 18.1234C57.7288 18.7479 57.4314 19.6476 57.4314 20.8223C57.4314 21.997 57.7213 22.9041 58.3013 23.5435C58.8961 24.168 59.6396 24.4803 60.5317 24.4803Z" fill="#141920"/>
<path d="M46.8283 27.1569C45.7428 27.1569 44.7614 26.971 43.8841 26.5993C43.0216 26.2275 42.3376 25.6922 41.8321 24.9933C41.3265 24.2945 41.0663 23.4692 41.0514 22.5175H44.3971C44.4417 23.1569 44.6648 23.6625 45.0663 24.0342C45.4826 24.406 46.0477 24.5919 46.7614 24.5919C47.49 24.5919 48.0625 24.4209 48.4789 24.0789C48.8952 23.722 49.1034 23.261 49.1034 22.696C49.1034 22.235 48.9622 21.8558 48.6796 21.5584C48.3971 21.261 48.0402 21.0305 47.609 20.867C47.1926 20.6885 46.6127 20.4952 45.8692 20.287C44.8581 19.9896 44.0328 19.6997 43.3934 19.4171C42.7689 19.1198 42.2261 18.6811 41.7651 18.1012C41.319 17.5064 41.096 16.7183 41.096 15.7369C41.096 14.8149 41.3265 14.012 41.7874 13.3279C42.2484 12.6439 42.8953 12.1235 43.728 11.7666C44.5607 11.3949 45.5124 11.209 46.583 11.209C48.1889 11.209 49.49 11.603 50.4863 12.3911C51.4975 13.1644 52.0551 14.2499 52.1592 15.6476H48.7242C48.6945 15.1123 48.464 14.6737 48.0328 14.3317C47.6164 13.9748 47.0588 13.7963 46.3599 13.7963C45.7503 13.7963 45.2596 13.9525 44.8878 14.2647C44.5309 14.577 44.3525 15.0305 44.3525 15.6253C44.3525 16.0417 44.4863 16.3911 44.754 16.6737C45.0365 16.9413 45.3785 17.1644 45.78 17.3428C46.1964 17.5064 46.7763 17.6997 47.5198 17.9227C48.5309 18.2201 49.3562 18.5175 49.9956 18.8149C50.635 19.1123 51.1852 19.5584 51.6462 20.1532C52.1071 20.748 52.3376 21.5287 52.3376 22.4952C52.3376 23.3279 52.122 24.1012 51.6908 24.8149C51.2596 25.5287 50.6276 26.1012 49.7949 26.5324C48.9622 26.9487 47.9733 27.1569 46.8283 27.1569Z" fill="#141920"/>
</svg>
