<svg width="64" height="64" viewBox="0 0 64 64" fill="none" xmlns="http://www.w3.org/2000/svg">
<mask id="mask0_764_449" style="mask-type:alpha" maskUnits="userSpaceOnUse" x="0" y="0" width="64" height="64">
<path d="M0 4C0 1.79086 1.79086 0 4 0H64V60C64 62.2091 62.2091 64 60 64H4C1.79086 64 0 62.2091 0 60V4Z" fill="#232323"/>
</mask>
<g mask="url(#mask0_764_449)">
<path d="M54.683 29.0563V50.3583C54.683 51.5859 54.2718 52.6108 53.4496 53.433C52.6274 54.2552 51.6027 54.6663 50.3756 54.6663H13.6576C12.4301 54.6663 11.4052 54.2552 10.583 53.433C9.76073 52.6108 9.34962 51.5859 9.34962 50.3583V28.9537C8.22473 28.123 7.40162 27.0341 6.88029 25.687C6.35896 24.3399 6.34784 22.9023 6.84696 21.3743L9.44229 12.8203C9.79784 11.7332 10.3712 10.8801 11.1623 10.261C11.9538 9.64234 12.9325 9.33301 14.0983 9.33301H49.8316C50.9974 9.33301 51.9734 9.62278 52.7596 10.2023C53.5463 10.7819 54.1225 11.6203 54.4883 12.7177L57.1856 21.3743C57.6847 22.9023 57.6736 24.3519 57.1523 25.723C56.631 27.0937 55.8079 28.2048 54.683 29.0563ZM37.883 27.9997C39.5958 27.9997 40.8745 27.5201 41.719 26.561C42.5634 25.6023 42.919 24.6119 42.7856 23.5897L41.011 11.9997H33.3496V23.1997C33.3496 24.509 33.7974 25.6363 34.693 26.5817C35.589 27.527 36.6523 27.9997 37.883 27.9997ZM25.883 27.9997C27.3154 27.9997 28.4736 27.527 29.3576 26.5817C30.2412 25.6363 30.683 24.509 30.683 23.1997V11.9997H23.0216L21.247 23.7943C21.1376 24.6219 21.4992 25.5297 22.3316 26.5177C23.1641 27.5057 24.3478 27.9997 25.883 27.9997ZM14.0163 27.9997C15.1923 27.9997 16.1914 27.5997 17.0136 26.7997C17.8358 25.9997 18.3478 25.0015 18.5496 23.805L20.2216 11.9997H14.0983C13.517 11.9997 13.0554 12.1279 12.7136 12.3843C12.3718 12.6408 12.1154 13.0255 11.9443 13.5383L9.48296 21.9583C9.04518 23.3601 9.23229 24.7175 10.0443 26.0303C10.8563 27.3432 12.1803 27.9997 14.0163 27.9997ZM50.0163 27.9997C51.6127 27.9997 52.8881 27.3775 53.8423 26.133C54.7961 24.8886 55.0318 23.497 54.5496 21.9583L51.955 13.4357C51.7839 12.9228 51.5274 12.5552 51.1856 12.333C50.8438 12.1108 50.3823 11.9997 49.801 11.9997H43.811L45.483 23.805C45.6847 25.0015 46.1967 25.9997 47.019 26.7997C47.8412 27.5997 48.8403 27.9997 50.0163 27.9997ZM13.6576 51.9997H50.3756C50.8539 51.9997 51.247 51.8459 51.555 51.5383C51.8625 51.2303 52.0163 50.837 52.0163 50.3583V30.3277C51.6572 30.4508 51.3161 30.5381 50.993 30.5897C50.6703 30.6408 50.3447 30.6663 50.0163 30.6663C48.8163 30.6663 47.7607 30.4321 46.8496 29.9637C45.9385 29.4952 45.0727 28.7483 44.2523 27.723C43.555 28.591 42.6952 29.2986 41.673 29.8457C40.6507 30.3928 39.4079 30.6663 37.9443 30.6663C36.8812 30.6663 35.8701 30.4186 34.911 29.923C33.9523 29.427 32.9874 28.6937 32.0163 27.723C31.1238 28.6937 30.135 29.427 29.0496 29.923C27.9643 30.4186 26.9292 30.6663 25.9443 30.6663C24.8265 30.6663 23.737 30.4526 22.6756 30.025C21.6138 29.5979 20.683 28.8306 19.883 27.723C18.5736 29.0323 17.4292 29.8501 16.4496 30.1763C15.4701 30.503 14.659 30.6663 14.0163 30.6663C13.6883 30.6663 13.3576 30.6408 13.0243 30.5897C12.691 30.5381 12.355 30.4508 12.0163 30.3277V50.3583C12.0163 50.837 12.1701 51.2303 12.4776 51.5383C12.7856 51.8459 13.179 51.9997 13.6576 51.9997Z" fill="#141920"/>
</g>
</svg>
