<?xml version="1.0" encoding="UTF-8"?>
<svg version="1.1" xmlns="http://www.w3.org/2000/svg" width="38" height="38">
<path d="M0 0 C0.66 0 1.32 0 2 0 C2.33 1.32 2.66 2.64 3 4 C6.3 4.33 9.6 4.66 13 5 C12.9071875 6.6396875 12.9071875 6.6396875 12.8125 8.3125 C12.64732935 11.88841744 12.64732935 11.88841744 14.375 13.8125 C14.91125 14.204375 15.4475 14.59625 16 15 C16.66 15.66 17.32 16.32 18 17 C17.175 17.495 16.35 17.99 15.5 18.5 C12.84997241 20.66272692 12.84997241 20.66272692 12.66796875 23.046875 C12.68558738 25.03425598 12.83495051 27.01940609 13 29 C11.96875 28.896875 10.9375 28.79375 9.875 28.6875 C4.84276284 29.09332558 3.53655291 30.54970448 0 34 C-0.2784375 33.0409375 -0.2784375 33.0409375 -0.5625 32.0625 C-1.93141472 29.59836374 -1.93141472 29.59836374 -5.5 29.25 C-7.33056243 29.11924554 -9.1647737 29 -11 29 C-10.95875 27.906875 -10.9175 26.81375 -10.875 25.6875 C-10.67925334 21.91107771 -10.67925334 21.91107771 -13 19 C-13.99 18.67 -14.98 18.34 -16 18 C-15 15 -15 15 -12.9375 13.1875 C-10.67714825 11.0789102 -10.67714825 11.0789102 -10.75 7.75 C-10.8325 6.8425 -10.915 5.935 -11 5 C-10.113125 5.103125 -9.22625 5.20625 -8.3125 5.3125 C-3.98166679 4.90393083 -2.83771111 3.15301234 0 0 Z " fill="#FAD837" transform="translate(18,2)"/>
<path d="M0 0 C4.13288558 1.35258074 5.90208828 2.59078972 8.4375 6.125 C9.12901325 10.42774909 8.95307405 12.33445312 6.5625 16 C3.8501761 18.7123239 2.97508847 19.06414093 -0.875 19.5 C-4.5625 19.125 -4.5625 19.125 -7.5 17.1875 C-9.8980782 13.62671722 -10.36372153 11.51404093 -10.109375 7.2890625 C-9.49123699 4.84300211 -8.8087247 3.74065442 -7 2 C-3.5625 0.125 -3.5625 0.125 0 0 Z " fill="#E45715" transform="translate(19.5625,8.875)"/>
<path d="M0 0 C-0.125 1.6875 -0.125 1.6875 -1 4 C-2.5159375 5.0828125 -2.5159375 5.0828125 -4.0625 6.1875 C-6.14707112 7.80492627 -6.89863154 8.58712699 -7.53515625 11.1796875 C-7.67799181 14.96793495 -7.4640319 17.28610476 -5.375 20.5 C-2.56404634 22.27533915 -0.28902165 22.70099803 3 23 C2.01 23.33 1.02 23.66 0 24 C0.33 26.31 0.66 28.62 1 31 C-0.0209375 29.7625 -0.0209375 29.7625 -1.0625 28.5 C-3.84478007 25.63931296 -3.84478007 25.63931296 -7.8125 25.6875 C-9.3903125 25.8421875 -9.3903125 25.8421875 -11 26 C-10.95875 24.906875 -10.9175 23.81375 -10.875 22.6875 C-10.67925334 18.91107771 -10.67925334 18.91107771 -13 16 C-13.99 15.67 -14.98 15.34 -16 15 C-15 12 -15 12 -12.9375 10.1875 C-10.67714825 8.0789102 -10.67714825 8.0789102 -10.75 4.75 C-10.8325 3.8425 -10.915 2.935 -11 2 C-9.6078125 2.061875 -9.6078125 2.061875 -8.1875 2.125 C-4.72190539 1.98909433 -3.24974144 0 0 0 Z " fill="#DFC028" transform="translate(18,5)"/>
<path d="M0 0 C-0.33 5.61 -0.66 11.22 -1 17 C-6 15 -6 15 -7 13 C-7.51932932 8.5899576 -7.80561556 5.13897373 -5.1875 1.4375 C-3 0 -3 0 0 0 Z " fill="#C5490F" transform="translate(17,10)"/>
<path d="M0 0 C-0.125 1.6875 -0.125 1.6875 -1 4 C-2.54288153 5.18930452 -4.08598808 6.37832819 -5.6328125 7.5625 C-7.95509341 10.0042125 -7.87329831 12.76910701 -8 16 C-8.33 16 -8.66 16 -9 16 C-9.144375 15.236875 -9.28875 14.47375 -9.4375 13.6875 C-9.9632594 10.91827092 -9.9632594 10.91827092 -11 8 C-11.03920815 6.00038436 -11.04443347 3.99950636 -11 2 C-9.6078125 2.061875 -9.6078125 2.061875 -8.1875 2.125 C-4.72190539 1.98909433 -3.24974144 0 0 0 Z " fill="#DAB41B" transform="translate(18,5)"/>
<path d="M0 0 C-0.8353125 0.37125 -0.8353125 0.37125 -1.6875 0.75 C-4.39971127 2.21606015 -6.63587365 4.02989471 -9 6 C-9.33 4.02 -9.66 2.04 -10 0 C-6.30581799 -1.231394 -3.7943739 -0.64432764 0 0 Z " fill="#F9DC41" transform="translate(28,29)"/>
<path d="M0 0 C-0.25 1.875 -0.25 1.875 -1 4 C-3.0625 5.25 -3.0625 5.25 -5 6 C-5 4.68 -5 3.36 -5 2 C-2 0 -2 0 0 0 Z " fill="#DEC12B" transform="translate(18,5)"/>
</svg>
